<?xml version="1.0" standalone="no"?><!DOCTYPE svg PUBLIC "-//W3C//DTD SVG 1.1//EN" "http://www.w3.org/Graphics/SVG/1.1/DTD/svg11.dtd"><svg class="icon" width="32px" height="32.00px" viewBox="0 0 1024 1024" version="1.1" xmlns="http://www.w3.org/2000/svg"><path fill="#170808" d="M512 171.8c-125.2 0-227 101.8-227 227V456h-57.2c-86 0-156 70-156 156s70 156 156 156H346v-27.7H227.7c-70.8 0-128.3-57.6-128.3-128.3S157 483.8 227.7 483.8h84.9v-84.9C312.6 289 402 199.5 512 199.5c109.9 0 199.4 89.4 199.4 199.4v84.9h84.9c70.7 0 128.3 57.6 128.3 128.3S867 740.4 796.3 740.4H678V768h118.3c86 0 156-70 156-156s-70-156-156-156H739v-57.2c0-125.1-101.8-227-227-227z"  /><path fill="#170808" d="M511.5 506c-7 0-14.1 2.7-19.5 8l-100 99.3 0.1 0.1c-2.8 2.5-4.7 6.1-4.7 10.2 0 7.6 6.2 13.8 13.8 13.8 4 0 7.6-1.8 10.1-4.6l0.1 0.1 86.2-85.5v293.1c0 7.6 6.2 13.8 13.8 13.8 7.6 0 13.8-6.2 13.8-13.8V547.2l86.5 85 0.1-0.1c2.5 2.8 6.1 4.6 10.1 4.6 7.6 0 13.8-6.2 13.8-13.8 0-4.1-1.9-7.7-4.8-10.3l0.1-0.1L530.8 514c-5.3-5.4-12.3-8-19.3-8z"  /></svg>